<?xml version="1.0" encoding="UTF-8"?>
<svg id="Calque_1" xmlns="http://www.w3.org/2000/svg" version="1.1" viewBox="0 0 24 24">
  <!-- Generator: Adobe Illustrator 29.6.1, SVG Export Plug-In . SVG Version: 2.1.1 Build 9)  -->
  <defs>
    <style>
      .st0 {
        fill: #aa1ed8;
      }
    </style>
  </defs>
  <path class="st0" d="M19,3H5c-1.1,0-2,.9-2,2v14c0,1.1.9,2,2,2h14c1.1,0,2-.9,2-2V5c0-1.1-.9-2-2-2M13.9,14.8l-2.2,2.2c-.6.7-1.5,1-2.4,1s-1.7-.3-2.4-1c-1.3-1.3-1.3-3.4,0-4.7l1.4-1.4v.6c0,.5,0,1,.2,1.4v.2c0,0-.3.4-.3.4-.3.3-.5.7-.5,1.1s.2.8.5,1.1c.6.6,1.7.6,2.3,0l2.2-2.2c.3-.3.5-.7.5-1.2s-.2-.8-.5-1.1c-.2-.2-.3-.4-.3-.6s0-.5.3-.6c.3-.3.9-.3,1.2,0,.6.6,1,1.5,1,2.4s-.4,1.7-1,2.4M17,11.7l-1.3,1.4v-.6c0-.5,0-1-.2-1.4h0c0-.1.4-.6.4-.6.3-.3.5-.7.5-1.1s-.2-.8-.5-1.1c-.6-.6-1.7-.6-2.3,0l-2.2,2.2c-.3.3-.5.7-.5,1.1s.2.8.5,1.1c.2.2.3.4.3.6s0,.5-.3.6c-.2.2-.4.2-.6.2s-.5,0-.6-.2c-1.3-1.3-1.3-3.4,0-4.8l2.2-2.2c1.3-1.3,3.4-1.3,4.7,0,.6.6,1,1.5,1,2.4s-.4,1.7-1,2.4Z"/>
</svg>